<svg width="24" height="24" viewBox="0 0 24 24" fill="none" xmlns="http://www.w3.org/2000/svg">
<g clip-path="url(#clip0_7659_22751)">
<path d="M12 24C18.6274 24 24 18.6274 24 12C24 5.37258 18.6274 0 12 0C5.37258 0 0 5.37258 0 12C0 18.6274 5.37258 24 12 24Z" fill="white"/>
<mask id="mask0_7659_22751" style="mask-type:alpha" maskUnits="userSpaceOnUse" x="0" y="0" width="24" height="24">
<path d="M12 24C18.6274 24 24 18.6274 24 12C24 5.37258 18.6274 0 12 0C5.37258 0 0 5.37258 0 12C0 18.6274 5.37258 24 12 24Z" fill="white"/>
</mask>
<g mask="url(#mask0_7659_22751)">
<path d="M35.2333 0.600064C35.2333 7.00661 30.0398 12.2001 23.6333 12.2001C22.3308 12.2001 21.0783 11.9854 19.9095 11.5896C19.9346 11.3139 19.9456 11.0321 19.9456 10.7477V9.87793C19.9456 9.13947 19.8685 8.48853 19.7002 7.93686C19.5188 7.34196 19.2075 6.82997 18.7899 6.38919L18.7667 6.36472L18.7422 6.34156C18.2971 5.92065 17.7926 5.62016 17.2073 5.42475L17.1848 5.41723L17.162 5.41059C16.6048 5.24818 15.9615 5.16979 15.234 5.16979H14.0037V5.17083H12.9684C12.3665 3.76823 12.0332 2.22308 12.0332 0.600064C12.0332 -5.80648 17.2267 -11 23.6333 -11C30.0398 -11 35.2333 -5.80648 35.2333 0.600064Z" fill="#4F4F4F"/>
</g>
<path d="M14.761 11.6703H7.90681V8.95808H14.761C15.1614 8.95808 15.4397 9.02787 15.5794 9.14973C15.7191 9.2716 15.8057 9.49762 15.8057 9.8278V10.8017C15.8057 11.1496 15.7191 11.3756 15.5794 11.4974C15.4397 11.6193 15.1614 11.6714 14.761 11.6714V11.6703ZM15.2312 6.40101H5V18H7.90681V14.2264H13.2637L15.8057 18H19.0607L16.2582 14.2087C17.2913 14.0556 17.7554 13.7389 18.138 13.2171C18.5206 12.6952 18.7125 11.8609 18.7125 10.7475V9.87778C18.7125 9.21743 18.6426 8.6956 18.5206 8.29563C18.3987 7.89567 18.1901 7.54778 17.894 7.23531C17.5813 6.9395 17.233 6.73119 16.8149 6.59161C16.3968 6.46975 15.8745 6.39996 15.2312 6.39996V6.40101Z" fill="#4F4F4F"/>
</g>
<defs>
<clipPath id="clip0_7659_22751">
<rect width="24" height="24" fill="white"/>
</clipPath>
</defs>
</svg>
