<svg width="301" height="69" viewBox="0 0 301 69" fill="none" xmlns="http://www.w3.org/2000/svg">
<g clip-path="url(#clip0_122_485)">
<path fill-rule="evenodd" clip-rule="evenodd" d="M241.441 63.7784C239.886 63.421 239.793 62.5478 238.881 61.2854L210.156 20.1523L206.287 20.2383L206.394 67.8053L210.031 67.8234C210.545 65.3485 209.03 49.6436 208.785 45.843C208.57 42.5355 207.078 26.1248 207.686 24.2471C208.852 24.3285 209.33 25.6045 209.964 26.532C210.675 27.5727 211.139 28.2514 211.85 29.2468L235.124 62.4573C236.218 63.9639 237.84 66.6425 238.97 67.8189L242.67 67.8008L242.625 20.175H238.734L241.45 63.7739L241.441 63.7784Z" fill="#1A1A18"/>
<path d="M241.441 63.7784C239.886 63.421 239.793 62.5478 238.881 61.2854L210.156 20.1523L206.287 20.2383L206.394 67.8053L210.031 67.8234C210.545 65.3485 209.03 49.6436 208.785 45.843C208.57 42.5355 207.078 26.1248 207.686 24.2471C208.852 24.3285 209.33 25.6045 209.964 26.532C210.675 27.5727 211.139 28.2514 211.85 29.2468L235.124 62.4573C236.218 63.9639 237.84 66.6425 238.97 67.8189L242.67 67.8008L242.625 20.175H238.734L241.45 63.7739L241.441 63.7784Z" stroke="#1A1A18" stroke-width="0.3579" stroke-miterlimit="22.93"/>
<path fill-rule="evenodd" clip-rule="evenodd" d="M43.4336 53.7836C44.0725 72.9226 67.5206 70.045 75.4155 65.6063C76.7872 64.8372 79.3608 62.9549 79.6199 61.6564C80.0041 59.7651 79.7271 22.1884 79.6065 20.1749L75.9338 20.2428C75.3664 29.9028 75.8891 41.2912 75.8891 51.1412C75.8891 56.435 76.5012 60.8646 73.2351 64.0544C67.5384 69.6197 54.6349 68.579 49.9703 63.7648C47.0527 60.756 47.0884 56.4169 47.0884 51.1412C47.0884 44.7525 47.4682 24.8036 47.1108 20.1704H43.4961L43.4336 53.7836Z" fill="#1A1A18"/>
<path d="M43.4336 53.7836C44.0725 72.9226 67.5206 70.045 75.4155 65.6063C76.7872 64.8372 79.3608 62.9549 79.6199 61.6564C80.0041 59.7651 79.7271 22.1884 79.6065 20.1749L75.9338 20.2428C75.3664 29.9028 75.8891 41.2912 75.8891 51.1412C75.8891 56.435 76.5012 60.8646 73.2351 64.0544C67.5384 69.6197 54.6349 68.579 49.9703 63.7648C47.0527 60.756 47.0884 56.4169 47.0884 51.1412C47.0884 44.7525 47.4682 24.8036 47.1108 20.1704H43.4961L43.4336 53.7836Z" stroke="#1A1A18" stroke-width="0.3579" stroke-miterlimit="22.93"/>
<path fill-rule="evenodd" clip-rule="evenodd" d="M157.363 67.8279H161.107C162.783 64.4707 162.872 59.7968 165.093 56.064C168.386 50.5304 184.52 48.1912 190.596 61.9776C191.342 63.6698 192.553 66.1267 193.009 67.8234H197.146L176.312 20.1523L172.304 20.1659C172.604 21.5595 173.216 21.659 172.867 23.2743L165.544 43.9743C164.409 47.2954 157.341 66.1493 157.368 67.8325L157.363 67.8279ZM166.496 51.0281C166.116 49.4083 172.595 26.9257 173.627 25.1294C175.32 25.6769 179.806 37.3367 180.767 39.599C181.919 42.3228 186.932 52.6298 187.178 54.6523C185.664 54.4216 183.103 51.3222 178.144 49.8427C171.661 47.9062 169.346 50.4037 166.5 51.0281H166.496Z" fill="#1A1A18"/>
<path fill-rule="evenodd" clip-rule="evenodd" d="M253.978 46.5172C256.382 78.0853 303.743 75.4565 300.736 41.237C297.984 9.91326 251.396 12.6325 253.978 46.5172ZM296.947 47.1778C293.431 78.1939 254.238 72.6648 257.843 40.3728C259.13 28.8532 267.628 18.2068 280.514 20.4646C291.326 22.3604 298.448 33.9434 296.947 47.1733V47.1778Z" fill="#1A1A18"/>
<path d="M253.978 46.5172C256.382 78.0853 303.743 75.4565 300.736 41.237C297.984 9.91326 251.396 12.6325 253.978 46.5172ZM296.947 47.1778C293.431 78.1939 254.238 72.6648 257.843 40.3728C259.13 28.8532 267.628 18.2068 280.514 20.4646C291.326 22.3604 298.448 33.9434 296.947 47.1733V47.1778Z" stroke="#1A1A18" stroke-width="0.3579" stroke-miterlimit="22.93"/>
<path fill-rule="evenodd" clip-rule="evenodd" d="M132.337 57.598C132.253 57.7337 130.644 59.7381 130.456 59.9417C116.579 74.9046 95.0252 67.4616 94.6455 44.5355C94.3416 26.2335 108.541 16.0034 121.717 21.8085C128.803 24.9305 129.389 29.9392 130.242 31.0794C133.691 29.9573 131.551 25.6996 130.349 24.2925C126.114 19.3471 113.804 18.1617 106.767 20.433C85.7944 27.2063 85.5844 60.0368 106.11 67.3259C113.138 69.8234 124.898 68.8054 130.313 64.7469C132.682 62.9732 132.798 62.0638 132.337 57.6025V57.598Z" fill="#1A1A18"/>
<path d="M132.337 57.598C132.253 57.7337 130.644 59.7381 130.456 59.9417C116.579 74.9046 95.0252 67.4616 94.6455 44.5355C94.3416 26.2335 108.541 16.0034 121.717 21.8085C128.803 24.9305 129.389 29.9392 130.242 31.0794C133.691 29.9573 131.551 25.6996 130.349 24.2925C126.114 19.3471 113.804 18.1617 106.767 20.433C85.7944 27.2063 85.5844 60.0368 106.11 67.3259C113.138 69.8234 124.898 68.8054 130.313 64.7469C132.682 62.9732 132.798 62.0638 132.337 57.6025V57.598Z" stroke="#1A1A18" stroke-width="0.3579" stroke-miterlimit="22.93"/>
<path fill-rule="evenodd" clip-rule="evenodd" d="M0.294784 67.8281L32.6967 67.8145L32.7414 63.6654C27.0804 64.5522 22.1254 65.8418 15.8568 66.3757C2.53772 67.5113 3.84237 67.534 3.84237 59.3942C3.84237 52.1142 4.20428 25.1385 3.76642 20.166H0.125L0.290316 67.8281H0.294784Z" fill="#1A1A18"/>
<path d="M0.294784 67.8281L32.6967 67.8145L32.7414 63.6654C27.0804 64.5523 22.1254 65.8418 15.8568 66.3757C2.53772 67.5113 3.84237 67.534 3.84237 59.3942C3.84237 52.1142 4.20428 25.1385 3.76642 20.166H0.125L0.290316 67.8281H0.294784Z" stroke="#1A1A18" stroke-width="0.3579" stroke-miterlimit="22.93"/>
<path fill-rule="evenodd" clip-rule="evenodd" d="M143.562 67.8235H147.328L147.243 20.166H143.566L143.562 67.8235Z" fill="#1A1A18"/>
<path d="M143.562 67.8235H147.328L147.243 20.166H143.566L143.562 67.8235Z" stroke="#1A1A18" stroke-width="0.3579" stroke-miterlimit="22.93"/>
<path fill-rule="evenodd" clip-rule="evenodd" d="M173.26 10.5108L175.815 10.5334C176.772 8.51089 181.235 1.5204 181.266 0.131348L177.406 0.153971L173.26 10.5108Z" fill="#1A1A18"/>
<path d="M173.26 10.5108L175.815 10.5334C176.772 8.51089 181.235 1.5204 181.266 0.131348L177.406 0.153971L173.26 10.5108Z" stroke="#1A1A18" stroke-width="0.3579" stroke-miterlimit="22.93"/>
</g>
<defs>
<clipPath id="clip0_122_485">
<rect width="301" height="69" fill="white"/>
</clipPath>
</defs>
</svg>
