<svg width="381" height="90" viewBox="0 0 381 90" fill="none" xmlns="http://www.w3.org/2000/svg">
<path fill-rule="evenodd" clip-rule="evenodd" d="M223.941 1.04149C223.683 1.61445 223.468 2.19996 223.462 2.34297C223.457 2.48598 223.2 3.15417 222.891 3.82788C222.582 4.50158 222.325 5.26624 222.32 5.52746C222.314 5.78836 222.205 6.13287 222.077 6.29303C221.949 6.45288 221.538 7.41077 221.163 8.42133C220.789 9.43189 220.239 10.8369 219.943 11.5434C219.647 12.2498 219.404 13.118 219.404 13.4726C219.404 14.063 219.543 14.1096 221.053 14.0253C222.797 13.9283 222.963 13.7822 224.117 11.3305C224.315 10.9095 224.548 10.496 224.634 10.4118C224.721 10.3276 224.951 9.9142 225.146 9.49314C225.533 8.66111 226.146 7.59329 226.378 7.34953C226.458 7.26531 226.72 6.783 226.959 6.27772C227.198 5.77244 227.462 5.29013 227.545 5.20591C227.629 5.1217 227.859 4.70829 228.058 4.28722C228.256 3.86616 228.744 2.91439 229.142 2.17209C230.28 0.0471601 230.236 0 227.137 0H224.41L223.941 1.04149ZM139.589 25.1293C138.6 25.2649 137.554 25.5071 137.265 25.6673C136.975 25.8275 136.183 26.0556 135.504 26.1741C134.825 26.2926 134.269 26.5153 134.269 26.669C134.269 26.8227 134.04 26.9501 133.76 26.9522C133.316 26.9556 132.399 27.4058 128.966 29.3068C128.526 29.55 128.167 29.877 128.167 30.0329C128.167 30.1891 128.022 30.3168 127.844 30.3168C126.677 30.3168 120.322 37.3139 120.322 38.5985C120.322 38.7596 120.21 38.8912 120.073 38.8912C119.807 38.8912 117.754 43.1448 117.044 45.169C116.807 45.8427 116.518 47.014 116.401 47.7719C116.284 48.5298 116.039 49.3435 115.858 49.5799C115.392 50.1853 115.398 63.7418 115.863 64.3378C116.048 64.5742 116.296 65.4494 116.413 66.2823C116.608 67.66 116.972 68.7548 118.166 71.551C118.393 72.0817 118.578 72.6559 118.578 72.8271C118.578 72.9979 118.681 73.1838 118.807 73.2402C118.933 73.2962 119.414 74.029 119.876 74.8684C120.852 76.6409 121.03 76.8966 122.241 78.2663C122.738 78.8276 123.367 79.645 123.639 80.0823C123.91 80.5199 124.35 80.9657 124.616 81.0732C124.882 81.1807 125.43 81.6232 125.834 82.0572C126.743 83.0331 130.21 85.4382 130.707 85.4382C130.908 85.4382 131.073 85.576 131.073 85.7445C131.073 85.9129 131.2 86.0507 131.354 86.0507C131.51 86.0507 132.351 86.3952 133.225 86.8163C134.098 87.2373 135.072 87.5818 135.388 87.5818C135.705 87.5818 136.007 87.7102 136.061 87.8673C136.344 88.7017 147.071 89.765 149.088 89.1583C149.647 88.9899 151.465 88.7033 153.128 88.5208C154.792 88.3385 156.295 88.0685 156.47 87.9202C156.645 87.7723 157.376 87.5509 158.095 87.4287C158.814 87.3065 159.533 87.102 159.693 86.9746C159.853 86.8472 160.498 86.5682 161.126 86.3548C162.786 85.7907 165.553 84.0088 167.004 82.5695L168.265 81.3194V77.8848C168.265 75.9956 168.147 74.3735 168.004 74.2801C167.86 74.1864 167.37 74.5992 166.914 75.197C164.186 78.7774 160.025 82.3814 156.497 84.2213C155.698 84.6381 154.979 85.068 154.899 85.177C154.819 85.2857 154.181 85.5372 153.48 85.7356C152.78 85.9337 151.995 86.2173 151.737 86.3655C149.333 87.7435 140.89 87.6587 137.901 86.2265C137.421 85.9971 136.604 85.7148 136.085 85.5993C135.565 85.4839 135.141 85.2931 135.141 85.1749C135.141 85.0567 134.781 84.797 134.341 84.5979C133.278 84.1156 132.652 83.6805 130.96 82.2467C128.754 80.3781 125.842 76.9847 125.842 76.2838C125.842 76.0976 125.734 75.9451 125.602 75.9451C125.471 75.9451 124.98 75.1186 124.513 74.1083C124.046 73.0984 123.575 72.2716 123.468 72.271C123.361 72.2706 123.183 71.8226 123.072 71.2751C122.961 70.7275 122.768 70.142 122.643 69.9736C122.226 69.4092 121.435 66.0168 121.143 63.5428C120.983 62.1954 120.734 60.8538 120.588 60.5613C120.441 60.2689 120.322 58.6477 120.322 56.9588C120.322 55.27 120.441 53.6488 120.588 53.3563C120.734 53.0639 120.983 51.7223 121.141 50.3749C121.59 46.5519 122.182 44.6649 124.307 40.2693C127.111 34.4677 132.945 29.0573 137.745 27.8051C138.47 27.6162 139.156 27.3115 139.27 27.1283C139.558 26.6653 150.01 26.6711 150.568 27.1348C150.792 27.3216 151.403 27.5598 151.926 27.6642C153.659 28.0103 157.396 30.1116 159.094 31.6948C159.455 32.0317 160.064 32.5942 160.448 32.9449C161.671 34.0623 162.782 35.5451 163.086 36.4665C163.249 36.958 163.486 37.3601 163.612 37.3601C163.738 37.3601 163.93 37.8592 164.039 38.4696C164.148 39.0799 164.39 39.8378 164.577 40.1538C164.937 40.7617 165.65 40.9399 165.65 40.4224C165.65 40.254 165.836 40.1162 166.064 40.1162C166.293 40.1162 166.75 39.753 167.081 39.3092C167.9 38.2129 167.896 35.6746 167.074 33.7726C166.326 32.0424 164.179 29.8103 162.277 28.7856C161.495 28.3646 160.815 27.9273 160.766 27.8143C160.717 27.701 160.031 27.4336 159.241 27.2205C158.451 27.0071 157.805 26.7336 157.805 26.6129C157.805 26.492 157.118 26.296 156.279 26.1772C155.44 26.0584 154.614 25.8431 154.444 25.6988C153.552 24.9415 143.706 24.5643 139.589 25.1293ZM345.308 25.109C344.319 25.2557 343.273 25.5071 342.984 25.6673C342.694 25.8275 341.902 26.0556 341.223 26.1741C340.544 26.2926 339.988 26.5042 339.988 26.6445C339.988 26.7847 339.563 26.9963 339.044 27.1145C338.525 27.2327 337.511 27.6783 336.792 28.1049C336.073 28.5315 335.223 29.0337 334.903 29.2211C332.687 30.5201 329.89 33.0851 327.494 36.0163C326.529 37.1959 325.169 39.4118 325.169 39.8035C325.169 39.9753 325.049 40.1162 324.902 40.1162C324.755 40.1162 324.548 40.5296 324.443 41.0349C324.338 41.5401 324.152 41.9535 324.031 41.9535C323.909 41.9535 323.634 42.5391 323.42 43.255C323.206 43.971 322.935 44.6943 322.818 44.8627C322.702 45.0312 322.512 45.7202 322.397 46.3939C322.282 47.0676 322.08 47.764 321.947 47.9416C321.464 48.5889 321.017 52.9249 321.02 56.9588C321.022 61.145 321.489 65.8227 321.936 66.1307C322.07 66.2232 322.276 66.8501 322.393 67.5238C322.51 68.1975 322.708 68.8865 322.833 69.0549C322.958 69.2234 323.228 69.9124 323.434 70.5861C323.64 71.2598 324.071 72.2933 324.391 72.8828C324.712 73.4723 325.149 74.3135 325.362 74.7523C325.576 75.1912 326.078 75.9215 326.477 76.3757C326.876 76.8301 327.204 77.2977 327.204 77.4156C327.208 77.9442 332.444 83.2946 332.959 83.2946C333.115 83.2946 333.318 83.5013 333.41 83.754C333.502 84.0066 333.768 84.2133 334.002 84.2133C334.235 84.2133 334.599 84.386 334.81 84.597C335.315 85.102 338.298 86.6632 338.757 86.6632C338.955 86.6632 339.116 86.7857 339.116 86.9354C339.116 87.0848 339.607 87.3041 340.206 87.422C340.805 87.5402 341.426 87.7484 341.586 87.8853C341.746 88.0219 342.923 88.2951 344.201 88.4923C345.48 88.6892 346.927 88.9786 347.418 89.135C348.614 89.516 353.564 89.4989 353.79 89.113C353.889 88.9446 354.461 88.8068 355.061 88.8068C356.392 88.8068 359.492 88.2262 359.892 87.9019C360.052 87.7723 360.552 87.573 361.005 87.4591C362.33 87.125 365.543 85.4447 367.737 83.9389C370.178 82.2635 373.683 78.6317 375.318 76.0838C376.649 74.0079 378.633 69.8747 378.633 69.1753C378.633 68.9239 378.751 68.5873 378.896 68.4272C379.181 68.1099 379.985 64.5377 380.374 61.8585C380.69 59.6788 380.687 54.2147 380.37 52.0591C379.953 49.2348 379.224 45.8577 378.955 45.5037C378.815 45.3196 378.609 44.7209 378.498 44.1737C378.387 43.6265 378.19 43.1785 378.06 43.1785C377.931 43.1785 377.736 42.8082 377.629 42.3559C377.397 41.3836 375.279 37.5512 374.687 37.0333C374.46 36.8349 374.275 36.5565 374.275 36.4145C374.275 35.5622 367.139 29.0919 366.199 29.0919C366.033 29.0919 365.853 28.9884 365.8 28.8622C365.648 28.503 362.557 26.9483 361.994 26.9483C361.717 26.9483 361.49 26.8258 361.49 26.676C361.49 26.5266 361 26.3101 360.4 26.1956C359.801 26.0807 358.722 25.7739 358.003 25.5133C356.456 24.9532 348.143 24.6883 345.308 25.109ZM0.609375 56.9261C0.609375 84.8172 0.654122 87.8406 1.06905 88.0084C1.32184 88.1107 10.6707 88.1943 21.8444 88.1943H42.16V85.1691V82.1438L40.7798 82.4329C40.0206 82.5918 39.2035 82.808 38.9638 82.9134C38.3731 83.1728 32.8553 84.1361 28.9394 84.6635C27.1815 84.9002 24.6971 85.2352 23.4186 85.4076C22.1402 85.58 18.0092 85.8167 14.2386 85.9337C7.47308 86.1432 7.37458 86.1374 6.75655 85.486L6.13009 84.8258V55.4277V26.0296H3.36973H0.609375V56.9261ZM55.3182 48.6141C55.383 64.7968 55.5129 71.9362 55.7761 73.8015C56.2501 77.159 57.65 80.1931 59.8458 82.6209C61.3041 84.2335 63.9302 86.3539 64.4753 86.3588C64.5872 86.36 65.0233 86.5502 65.4447 86.782C66.7775 87.5148 70.1161 88.4834 72.524 88.8359C75.9401 89.3356 81.091 89.5077 82.2579 89.1611C82.8172 88.9948 84.5719 88.7066 86.1575 88.5208C87.7428 88.3349 89.1811 88.0605 89.3537 87.911C89.526 87.7613 90.2885 87.5417 91.0474 87.4226C91.8064 87.3035 92.4276 87.1057 92.4276 86.9832C92.4276 86.8604 92.9495 86.5952 93.5872 86.394C95.3051 85.8517 98.0794 84.0134 99.8626 82.2363L101.435 80.669V53.3493V26.0296H98.9653H96.4955V50.8162C96.4955 64.4489 96.3825 75.6765 96.2442 75.7666C96.1059 75.8566 95.9202 76.5 95.8316 77.1964C95.7429 77.8927 95.3658 79.102 94.9933 79.8835C94.2523 81.438 91.5518 84.3845 90.5732 84.706C90.2347 84.8172 89.8924 85.0034 89.8125 85.1195C89.7326 85.2355 89.0135 85.5748 88.2144 85.8737C83.3565 87.6906 75.1114 87.8994 71.0711 86.3073C68.8704 85.4404 66.6633 84.3327 66.1493 83.8376C65.8395 83.539 65.4726 83.2946 65.334 83.2946C64.5436 83.2946 62.218 79.8413 61.26 77.2447L60.6108 75.4858L60.6785 50.7577L60.746 26.0296H57.987H55.2281L55.3182 48.6141ZM181.702 57.0354L181.776 88.0412L183.804 88.1334C184.919 88.1839 186.129 88.1469 186.492 88.051L187.151 87.8764V56.953V26.0296H184.39H181.628L181.702 57.0354ZM217.886 26.4124C218.049 26.623 218.344 27.3706 218.542 28.074C218.87 29.2398 218.828 29.5779 218.063 31.9018C217.602 33.3038 217.143 34.5198 217.044 34.604C216.944 34.6882 216.765 35.2394 216.647 35.8289C216.529 36.4184 216.186 37.4789 215.884 38.1854C215.583 38.8919 215.336 39.5999 215.336 39.7582C215.336 39.9165 215.141 40.4408 214.902 40.9234C214.664 41.4057 214.467 42.0335 214.466 42.3183C214.465 42.6031 214.343 42.9154 214.194 43.0125C214.045 43.1096 213.762 43.9443 213.566 44.8679C213.37 45.7915 213.1 46.547 212.965 46.547C212.831 46.547 212.721 46.7614 212.721 47.0232C212.721 47.285 212.474 48.0775 212.173 48.784C211.871 49.4905 211.532 50.5258 211.419 51.0844C211.306 51.6433 211.031 52.4701 210.807 52.9218C210.583 53.3738 210.399 53.9765 210.398 54.2612C210.397 54.546 210.276 54.8578 210.128 54.9536C209.981 55.0498 209.772 55.5496 209.665 56.0643C209.558 56.5791 209.287 57.3698 209.063 57.8215C208.84 58.2735 208.656 58.829 208.655 59.0562C208.654 59.2834 208.463 59.9035 208.23 60.4342C207.795 61.4273 207.467 62.3825 206.109 66.6051C205.676 67.9525 205.238 69.1238 205.135 69.208C205.033 69.2923 204.852 69.8435 204.733 70.433C204.615 71.0225 204.42 71.6426 204.299 71.811C204.179 71.9794 203.921 72.6684 203.726 73.3421C203.532 74.0159 203.188 75.0013 202.962 75.532C202.736 76.0627 202.551 76.7092 202.551 76.9685C202.551 77.2279 202.43 77.5194 202.281 77.6165C202.131 77.7136 201.849 78.5484 201.653 79.472C201.457 80.3955 201.201 81.151 201.085 81.151C200.968 81.151 200.781 81.6673 200.669 82.2988C200.556 82.9299 200.368 83.5154 200.251 83.6002C199.981 83.7956 199.036 86.6181 198.97 87.4287C198.923 87.9943 199.121 88.0479 201.563 88.1288C203.448 88.1909 204.295 88.1031 204.515 87.8225C204.685 87.6057 204.995 86.533 205.204 85.4382C205.412 84.3435 205.669 83.3788 205.774 83.2946C205.879 83.2104 206.107 82.5214 206.28 81.7635C206.983 78.681 207.524 76.6819 207.791 76.1791C207.945 75.8866 208.072 75.472 208.072 75.2576C208.072 75.0436 208.592 74.0287 209.229 73.0025C210.043 71.6894 210.775 70.9193 211.699 70.4026C212.421 69.9987 213.012 69.5648 213.012 69.4383C213.012 69.3115 213.15 69.208 213.318 69.208C213.487 69.208 214.19 68.9367 214.88 68.6054C215.571 68.2737 216.678 67.9111 217.34 67.7994C218.003 67.6879 218.615 67.4766 218.701 67.3305C218.91 66.9753 223.924 66.9882 224.566 67.3455C224.843 67.5005 226.018 67.7884 227.177 67.9859C228.335 68.1834 229.283 68.4639 229.283 68.6097C229.283 68.7551 229.741 68.9646 230.3 69.0751C230.86 69.1857 231.317 69.3709 231.317 69.4867C231.317 69.6028 231.775 69.8719 232.334 70.0851C232.893 70.2982 233.351 70.6014 233.351 70.7591C233.351 70.9165 233.491 71.0454 233.661 71.0454C234.316 71.0454 237.416 73.8842 238.733 75.6909C239.237 76.3815 241.487 81.2812 241.487 81.6869C241.487 81.8976 241.618 82.0697 241.777 82.0697C241.937 82.0697 242.068 82.2152 242.068 82.3928C242.068 82.6865 242.394 83.5124 243.754 86.6632C244.009 87.2527 244.355 87.8363 244.523 87.96C244.691 88.0838 245.911 88.187 247.235 88.1897C249.926 88.1949 250.28 87.9261 249.525 86.4494C249.284 85.9775 248.826 84.9712 248.508 84.2133C248.19 83.4554 247.656 82.1882 247.323 81.3975C246.99 80.6068 246.717 79.8143 246.717 79.6367C246.717 79.4591 246.586 79.3136 246.427 79.3136C246.267 79.3136 246.135 79.1415 246.133 78.9308C246.132 78.7205 245.809 77.859 245.416 77.0169C245.023 76.1748 244.697 75.3137 244.692 75.103C244.687 74.8926 244.563 74.7202 244.416 74.7202C244.268 74.7202 244.055 74.2743 243.942 73.7292C243.828 73.1844 243.369 71.9785 242.92 71.0497C242.472 70.1209 241.757 68.5343 241.332 67.5238C240.906 66.5132 240.375 65.2522 240.151 64.7215C239.927 64.1908 239.744 63.6049 239.744 63.42C239.744 63.2347 239.613 63.0834 239.453 63.0834C239.293 63.0834 239.162 62.9285 239.162 62.7389C239.162 62.3126 237.659 58.7004 237.394 58.49C237.288 58.4058 237.109 57.8892 236.997 57.3416C236.884 56.7941 236.688 56.3464 236.562 56.3464C236.436 56.3464 236.168 55.7262 235.966 54.9683C235.765 54.2104 235.486 53.5903 235.347 53.5903C235.208 53.5903 235.095 53.4461 235.095 53.27C235.095 53.0936 234.641 51.9281 234.086 50.6793C233.531 49.4308 232.994 48.0592 232.892 47.6311C232.79 47.2032 232.59 46.8532 232.448 46.8532C232.305 46.8532 232.189 46.69 232.189 46.4907C232.189 46.291 231.939 45.5677 231.633 44.8829C230.49 42.3247 229.864 40.7525 229.864 40.4392C229.864 40.2616 229.734 40.1162 229.574 40.1162C229.414 40.1162 229.283 39.9612 229.283 39.7717C229.283 39.3285 227.773 35.7254 227.502 35.5196C227.388 35.4336 227.2 34.9513 227.083 34.4478C226.965 33.9441 226.628 33.052 226.333 32.465C226.038 31.878 225.796 31.2232 225.796 31.0104C225.796 30.7973 225.666 30.623 225.506 30.623C225.346 30.623 225.215 30.4237 225.215 30.1799C225.215 29.9361 224.888 29.0888 224.489 28.2969C224.089 27.505 223.763 26.6708 223.763 26.4433C223.763 26.1217 223.075 26.0296 220.676 26.0296C218.243 26.0296 217.652 26.1104 217.886 26.4124ZM260.955 57.1119V88.1943L263.352 88.1897C266.266 88.1839 266.618 88.0005 266.355 86.6206C266.247 86.0544 265.897 81.3194 265.576 76.0982C265.255 70.877 264.802 63.7801 264.568 60.3274C264.335 56.8746 263.977 51.2247 263.773 47.7719C263.569 44.3192 263.321 41.2875 263.22 41.0349C263.12 40.7822 262.964 38.612 262.873 36.2117C262.717 32.0571 262.736 31.8479 263.265 31.8479C263.571 31.8479 263.904 32.1236 264.006 32.4604C264.107 32.7973 264.315 33.0729 264.468 33.0729C264.621 33.0729 264.871 33.4174 265.023 33.8384C265.175 34.2595 265.433 34.604 265.596 34.604C265.76 34.604 265.894 34.7565 265.894 34.9427C265.894 35.2345 266.282 35.8194 267.642 37.5769C267.8 37.7802 267.928 38.0834 267.928 38.2506C267.928 38.4178 268.092 38.6646 268.292 38.7994C268.493 38.9341 269.048 39.6645 269.527 40.4224C270.006 41.1803 270.529 41.9679 270.689 42.1725C271.298 42.9528 271.586 43.3732 272.432 44.7096C272.911 45.4675 273.406 46.2255 273.53 46.3939C273.655 46.5623 274.271 47.458 274.898 48.3844C275.526 49.3107 276.241 50.287 276.488 50.5537C276.734 50.8204 276.936 51.1509 276.936 51.2877C276.936 51.4246 277.393 52.1253 277.953 52.8446C278.512 53.5643 278.97 54.271 278.97 54.4159C278.97 54.5607 279.198 54.8948 279.478 55.1588C279.758 55.4228 280.183 55.9492 280.423 56.3289C280.662 56.7086 281.316 57.6812 281.875 58.49C282.435 59.2987 283.088 60.2689 283.328 60.6458C283.568 61.0228 284.058 61.7109 284.418 62.1748C284.777 62.6391 285.072 63.1119 285.072 63.2261C285.072 63.3401 285.235 63.615 285.435 63.8371C285.86 64.3096 286.14 64.7095 289.49 69.6276C290.882 71.6707 292.189 73.5801 292.396 73.8707C292.602 74.1616 293.592 75.6086 294.595 77.0861C295.598 78.564 297.695 81.6333 299.256 83.9071L302.093 88.0412H304.551H307.009L307.083 57.0354L307.157 26.0296H304.432H301.707L301.827 28.8622C301.893 30.4203 302.017 32.1082 302.103 32.6135C302.279 33.6464 302.842 42.4649 303.492 54.3559C303.731 58.735 304.06 63.2825 304.221 64.4615C304.383 65.6405 304.604 69.1921 304.712 72.3542C304.819 75.5161 305.021 78.1769 305.159 78.2673C305.583 78.5435 305.469 82.3759 305.037 82.3759C304.681 82.3759 303.645 81.0242 301.809 78.1653C301.35 77.4496 300.861 76.8638 300.722 76.8638C300.584 76.8638 300.471 76.7382 300.471 76.5851C300.471 76.1619 298.949 73.8015 298.676 73.8015C298.545 73.8015 298.437 73.5905 298.437 73.3326C298.437 73.0745 298.241 72.7842 298.002 72.6874C297.762 72.5903 297.566 72.3735 297.566 72.2051C297.566 72.037 297.271 71.5198 296.912 71.0555C296.553 70.5916 296.062 69.9001 295.822 69.5195C295.583 69.1385 295.256 68.6715 295.096 68.4814C294.936 68.2915 294.413 67.5161 293.934 66.7582C293.454 66.0003 292.96 65.2424 292.835 65.0739C292.711 64.9055 292.095 64.0098 291.467 63.0834C290.84 62.1571 290.146 61.1925 289.925 60.9398C289.705 60.6872 289.442 60.2392 289.341 59.9446C289.24 59.65 289.023 59.4087 288.858 59.4087C288.693 59.4087 288.558 59.2831 288.558 59.13C288.558 58.7068 287.036 56.3464 286.763 56.3464C286.632 56.3464 286.524 56.1354 286.524 55.8775C286.524 55.6194 286.328 55.3291 286.089 55.2323C285.849 55.1352 285.653 54.9184 285.653 54.75C285.653 54.4866 285.249 53.8861 283.905 52.1486C283.747 51.9452 283.619 51.6421 283.619 51.4749C283.619 51.3077 283.455 51.0608 283.255 50.9261C283.054 50.7913 282.499 50.061 282.02 49.3031C281.541 48.5452 281.047 47.7872 280.922 47.6188C280.798 47.4504 280.18 46.5547 279.551 45.6283C278.921 44.702 278.304 43.8062 278.179 43.6378C278.055 43.4694 277.56 42.7115 277.081 41.9535C276.043 40.3125 275.789 39.9526 275.12 39.1754C274.84 38.8508 274.611 38.4959 274.611 38.3869C274.611 38.2779 274.177 37.6234 273.645 36.9323C273.115 36.2411 272.596 35.4348 272.492 35.1399C272.389 34.845 272.17 34.604 272.005 34.604C271.84 34.604 271.706 34.457 271.706 34.2773C271.706 33.9211 270.242 31.7579 269.89 31.5929C269.77 31.5365 269.672 31.2912 269.672 31.0472C269.672 30.8034 269.475 30.5244 269.236 30.4277C268.996 30.3306 268.8 30.1138 268.8 29.9453C268.8 29.7772 268.506 29.2533 268.146 28.7807C266.861 27.0919 266.475 26.514 266.475 26.2736C266.475 26.1392 265.233 26.0296 263.715 26.0296H260.955V57.1119ZM346.017 26.846C345.418 26.9225 344.928 27.0968 344.928 27.2331C344.928 27.369 344.461 27.5604 343.89 27.6581C342.745 27.8538 337.954 30.2972 337.954 30.6852C337.954 30.8193 337.773 30.9293 337.553 30.9293C336.487 30.9293 330.555 38.1324 329.956 40.1548C329.837 40.5547 329.656 40.9506 329.553 41.0349C329.449 41.1191 328.996 42.2215 328.545 43.4847C328.094 44.7479 327.623 45.9936 327.5 46.253C327.376 46.5124 327.179 47.477 327.061 48.3966C326.944 49.3162 326.7 50.2613 326.519 50.4964C326.066 51.0853 326.063 62.8268 326.515 63.4212C326.695 63.6564 326.932 64.6391 327.043 65.6049C327.153 66.5708 327.351 67.4307 327.481 67.5155C327.612 67.6006 327.808 68.1708 327.917 68.783C328.026 69.3951 328.225 70.12 328.359 70.3941C328.494 70.6681 328.975 71.7191 329.428 72.7297C330.628 75.4071 332.286 77.8603 334.463 80.1797C336.399 82.2421 337.676 83.3231 338.608 83.6884C338.888 83.7981 339.116 84.0192 339.116 84.1793C339.116 84.3398 339.509 84.5618 339.988 84.6727C340.468 84.7835 340.86 84.9844 340.86 85.1191C340.86 85.2536 341.35 85.5084 341.949 85.6854C342.549 85.8624 343.562 86.2176 344.201 86.4748C344.841 86.7321 345.846 86.9486 346.436 86.9559C347.026 86.9633 347.589 87.1072 347.688 87.2756C347.908 87.6511 353.548 87.6884 353.766 87.316C353.852 87.1697 354.724 86.9544 355.705 86.8374C356.686 86.7204 357.702 86.5067 357.964 86.3621C358.225 86.2176 359.289 85.6774 360.328 85.1617C362.575 84.0464 363.724 83.3403 364.529 82.582C364.855 82.2743 365.449 81.8094 365.848 81.5485C366.536 81.0999 369.916 77.1161 369.916 76.7545C369.916 76.6611 370.254 76.0618 370.668 75.4227C371.081 74.7836 371.807 73.3651 372.281 72.2703C372.755 71.1756 373.266 70.0042 373.415 69.6674C373.765 68.8816 374.54 65.5581 374.88 63.3897C375.221 61.2121 375.221 52.7056 374.88 50.528C374.168 45.986 372.655 41.6259 370.756 38.6463C370.294 37.922 369.916 37.2817 369.916 37.2232C369.916 36.6077 365.368 31.8682 363.66 30.7045C362.866 30.1634 362.064 29.5846 361.878 29.4186C361.692 29.2526 361.202 29.0273 360.788 28.9179C360.375 28.8086 360.037 28.6224 360.037 28.5042C360.037 28.3857 359.351 28.1073 358.512 27.8853C357.672 27.6633 356.815 27.3381 356.605 27.1623C356.215 26.8343 348.024 26.5897 346.017 26.846ZM219.815 33.3071C219.642 33.4309 219.292 34.359 219.038 35.3696C218.784 36.3802 218.361 37.9649 218.098 38.8912C217.096 42.4215 216.441 44.9142 216.146 46.3173C215.978 47.1175 215.744 47.7719 215.626 47.7719C215.508 47.7719 215.324 48.4609 215.218 49.3031C215.112 50.1452 214.92 50.8342 214.792 50.8342C214.663 50.8342 214.394 51.7988 214.194 52.9778C213.994 54.1568 213.728 55.1214 213.604 55.1214C213.479 55.1214 213.291 55.805 213.186 56.64C213.081 57.4751 212.886 58.2297 212.752 58.317C212.618 58.4039 212.348 59.3398 212.152 60.3966C211.955 61.4534 211.691 62.4557 211.564 62.6241C211.438 62.7925 211.239 63.5348 211.124 64.2734L210.913 65.6166L211.745 65.3982C212.202 65.2782 212.968 64.9919 213.448 64.7622C213.927 64.5322 214.897 64.1868 215.602 63.9945C216.981 63.6187 222.271 63.5195 223.83 63.8401C225.577 64.1993 228.835 65.3679 230.01 66.0563C230.649 66.4311 231.597 66.9419 232.116 67.1915C232.635 67.4414 233.061 67.7905 233.061 67.9675C233.061 68.1445 233.261 68.2893 233.505 68.2893C233.75 68.2893 234.026 68.496 234.118 68.7487C234.21 69.0013 234.449 69.208 234.651 69.208C234.852 69.208 235.361 69.4938 235.782 69.8428C236.742 70.639 236.746 70.2434 235.797 68.0407C235.385 67.0828 234.934 66.0232 234.796 65.6864C234.345 64.5901 232.719 60.8443 231.578 58.2744C230.965 56.8927 230.38 55.4114 230.278 54.9824C230.176 54.5537 229.975 54.2028 229.833 54.2028C229.69 54.2028 229.574 54.0573 229.574 53.8797C229.574 53.7021 229.312 52.9441 228.993 52.1954C228.673 51.4467 228.15 50.2218 227.83 49.473C227.511 48.7243 227.249 47.9664 227.249 47.7888C227.249 47.6111 227.119 47.4657 226.959 47.4657C226.799 47.4657 226.668 47.3202 226.668 47.1426C226.668 46.8443 226.31 45.9391 224.92 42.7191C224.056 40.7158 222.433 37.0006 221.768 35.5025C221.427 34.7336 221.147 33.956 221.147 33.7744C221.147 33.5932 220.941 33.361 220.688 33.2587C220.135 33.0352 220.201 33.0315 219.815 33.3071Z" fill="#363533"/>
</svg>
