<svg width="1280" height="480" viewBox="0 0 1280 480" fill="none" xmlns="http://www.w3.org/2000/svg">
<rect width="1280" height="480" fill="#CFCFCF"/>
<rect x="520" y="120" width="240" height="240" fill="#CFCFCF"/>
<path d="M608.966 247.227C607.943 247.227 607.063 246.986 606.324 246.503C605.585 246.02 605.017 245.355 604.619 244.507C604.222 243.66 604.023 242.691 604.023 241.602C604.023 240.494 604.226 239.517 604.634 238.669C605.045 237.817 605.618 237.152 606.352 236.673C607.091 236.19 607.953 235.949 608.938 235.949C609.705 235.949 610.396 236.091 611.011 236.375C611.627 236.659 612.131 237.057 612.524 237.568C612.917 238.08 613.161 238.676 613.256 239.358H611.58C611.452 238.861 611.168 238.42 610.727 238.037C610.292 237.649 609.705 237.455 608.966 237.455C608.313 237.455 607.74 237.625 607.247 237.966C606.759 238.302 606.378 238.778 606.104 239.393C605.834 240.004 605.699 240.722 605.699 241.545C605.699 242.388 605.831 243.122 606.097 243.747C606.366 244.372 606.745 244.857 607.233 245.203C607.725 245.549 608.303 245.722 608.966 245.722C609.402 245.722 609.797 245.646 610.152 245.494C610.507 245.343 610.808 245.125 611.054 244.841C611.3 244.557 611.475 244.216 611.58 243.818H613.256C613.161 244.462 612.927 245.042 612.553 245.558C612.183 246.07 611.693 246.477 611.082 246.78C610.476 247.078 609.771 247.227 608.966 247.227ZM620.138 247.227C619.153 247.227 618.289 246.993 617.545 246.524C616.807 246.055 616.229 245.4 615.812 244.557C615.401 243.714 615.195 242.729 615.195 241.602C615.195 240.466 615.401 239.474 615.812 238.626C616.229 237.779 616.807 237.121 617.545 236.652C618.289 236.183 619.153 235.949 620.138 235.949C621.123 235.949 621.984 236.183 622.723 236.652C623.466 237.121 624.044 237.779 624.456 238.626C624.873 239.474 625.081 240.466 625.081 241.602C625.081 242.729 624.873 243.714 624.456 244.557C624.044 245.4 623.466 246.055 622.723 246.524C621.984 246.993 621.123 247.227 620.138 247.227ZM620.138 245.722C620.886 245.722 621.501 245.53 621.984 245.146C622.467 244.763 622.825 244.259 623.057 243.634C623.289 243.009 623.405 242.331 623.405 241.602C623.405 240.873 623.289 240.194 623.057 239.564C622.825 238.934 622.467 238.425 621.984 238.037C621.501 237.649 620.886 237.455 620.138 237.455C619.39 237.455 618.774 237.649 618.291 238.037C617.808 238.425 617.451 238.934 617.219 239.564C616.987 240.194 616.871 240.873 616.871 241.602C616.871 242.331 616.987 243.009 617.219 243.634C617.451 244.259 617.808 244.763 618.291 245.146C618.774 245.53 619.39 245.722 620.138 245.722ZM629.316 240.438V247H627.64V236.091H629.259V237.795H629.401C629.657 237.241 630.045 236.796 630.566 236.46C631.087 236.119 631.759 235.949 632.583 235.949C633.321 235.949 633.968 236.1 634.522 236.403C635.076 236.702 635.507 237.156 635.814 237.767C636.122 238.373 636.276 239.14 636.276 240.068V247H634.6V240.182C634.6 239.325 634.377 238.657 633.932 238.179C633.487 237.696 632.876 237.455 632.1 237.455C631.565 237.455 631.087 237.571 630.665 237.803C630.248 238.035 629.919 238.373 629.678 238.818C629.436 239.263 629.316 239.803 629.316 240.438ZM644.083 236.091V237.511H638.43V236.091H644.083ZM640.077 233.477H641.754V243.875C641.754 244.348 641.822 244.704 641.96 244.94C642.102 245.172 642.281 245.329 642.499 245.409C642.722 245.485 642.956 245.523 643.202 245.523C643.387 245.523 643.539 245.513 643.657 245.494C643.775 245.471 643.87 245.452 643.941 245.438L644.282 246.943C644.168 246.986 644.01 247.028 643.806 247.071C643.603 247.118 643.344 247.142 643.032 247.142C642.558 247.142 642.094 247.04 641.64 246.837C641.19 246.633 640.816 246.323 640.518 245.906C640.224 245.49 640.077 244.964 640.077 244.33V233.477ZM651.061 247.227C650.01 247.227 649.103 246.995 648.341 246.531C647.583 246.062 646.999 245.409 646.587 244.571C646.179 243.728 645.976 242.748 645.976 241.631C645.976 240.513 646.179 239.528 646.587 238.676C646.999 237.819 647.571 237.152 648.305 236.673C649.044 236.19 649.906 235.949 650.891 235.949C651.459 235.949 652.02 236.044 652.574 236.233C653.128 236.422 653.632 236.73 654.087 237.156C654.541 237.578 654.903 238.136 655.173 238.832C655.443 239.528 655.578 240.385 655.578 241.403V242.114H647.169V240.665H653.874C653.874 240.049 653.75 239.5 653.504 239.017C653.263 238.534 652.917 238.153 652.467 237.874C652.022 237.594 651.497 237.455 650.891 237.455C650.223 237.455 649.645 237.62 649.158 237.952C648.675 238.278 648.303 238.705 648.043 239.23C647.782 239.756 647.652 240.319 647.652 240.92V241.886C647.652 242.71 647.794 243.409 648.078 243.982C648.367 244.55 648.767 244.983 649.278 245.281C649.79 245.575 650.384 245.722 651.061 245.722C651.501 245.722 651.899 245.66 652.254 245.537C652.614 245.409 652.924 245.22 653.185 244.969C653.445 244.713 653.646 244.396 653.788 244.017L655.408 244.472C655.237 245.021 654.951 245.504 654.548 245.92C654.146 246.332 653.649 246.654 653.057 246.886C652.465 247.114 651.8 247.227 651.061 247.227ZM659.804 240.438V247H658.128V236.091H659.747V237.795H659.889C660.145 237.241 660.533 236.796 661.054 236.46C661.575 236.119 662.247 235.949 663.071 235.949C663.81 235.949 664.456 236.1 665.01 236.403C665.564 236.702 665.995 237.156 666.303 237.767C666.61 238.373 666.764 239.14 666.764 240.068V247H665.088V240.182C665.088 239.325 664.866 238.657 664.42 238.179C663.975 237.696 663.365 237.455 662.588 237.455C662.053 237.455 661.575 237.571 661.153 237.803C660.737 238.035 660.408 238.373 660.166 238.818C659.925 239.263 659.804 239.803 659.804 240.438ZM674.571 236.091V237.511H668.918V236.091H674.571ZM670.566 233.477H672.242V243.875C672.242 244.348 672.31 244.704 672.448 244.94C672.59 245.172 672.77 245.329 672.988 245.409C673.21 245.485 673.444 245.523 673.691 245.523C673.875 245.523 674.027 245.513 674.145 245.494C674.264 245.471 674.358 245.452 674.429 245.438L674.77 246.943C674.657 246.986 674.498 247.028 674.294 247.071C674.091 247.118 673.833 247.142 673.52 247.142C673.047 247.142 672.583 247.04 672.128 246.837C671.678 246.633 671.304 246.323 671.006 245.906C670.712 245.49 670.566 244.964 670.566 244.33V233.477Z" fill="white"/>
</svg>
